<svg xmlns="http://www.w3.org/2000/svg" width="28.584" height="28.584" viewBox="0 0 28.584 28.584">
  <path id="Path_2013" data-name="Path 2013" d="M20.953,0c4.859,0,7.632,2.744,7.632,7.618h0V20.967c0,4.845-2.758,7.618-7.618,7.618H7.618C2.744,28.585,0,25.812,0,20.967H0V7.618C0,2.744,2.744,0,7.618,0H20.953ZM14.278,7.875a1.183,1.183,0,0,0-1.186,1.186h0v4.03H9.047a1.171,1.171,0,0,0-1.186,1.186,1.2,1.2,0,0,0,1.186,1.2h4.045v4.045a1.186,1.186,0,0,0,2.373,0h0V15.479h4.059a1.2,1.2,0,0,0,1.186-1.2,1.183,1.183,0,0,0-1.186-1.186H15.464V9.061A1.183,1.183,0,0,0,14.278,7.875Z" transform="translate(0)" fill="#fff"/>
</svg>
