<svg xmlns="http://www.w3.org/2000/svg" width="43.921" height="51.44" viewBox="0 0 43.921 51.44">
  <path id="Path_2011" data-name="Path 2011" d="M77.573,11.443H71.951V8.7A3.547,3.547,0,0,0,69.163,5.24V1.415A1.76,1.76,0,0,0,67.405-.343H65.893a1.76,1.76,0,0,0-1.7,1.317L53.525,5.158H49.071A2.263,2.263,0,0,0,46.81,7.418v4.025H41.188a3.772,3.772,0,0,0-3.768,3.768V39.478a3.772,3.772,0,0,0,3.768,3.768H53.961a4.531,4.531,0,0,1-.508,2.957l-1.4,2.5a1.607,1.607,0,0,0,1.4,2.392H65.307a1.607,1.607,0,0,0,1.4-2.392l-1.4-2.5a4.53,4.53,0,0,1-.508-2.957H77.573a3.772,3.772,0,0,0,3.768-3.768V15.211a3.772,3.772,0,0,0-3.768-3.768ZM69.163,6.81A2.037,2.037,0,0,1,70.444,8.7v6.162a2.037,2.037,0,0,1-1.28,1.889Zm-3.521-5.4a.251.251,0,0,1,.251-.251h1.512a.251.251,0,0,1,.251.251v20.51a.251.251,0,0,1-.251.251H65.893a.251.251,0,0,1-.251-.251ZM54.419,6.426l9.716-3.81V20.725l-9.716-3.81Zm-6.1.993a.754.754,0,0,1,.754-.754h3.841v10.01H49.071a.754.754,0,0,1-.754-.754Zm5.308,18.646h-2.1l-1.73-7.882h1.987ZM65.394,49.441a.1.1,0,0,1-.087.149H53.454a.1.1,0,0,1-.087-.149l1.4-2.5a6.045,6.045,0,0,0,.715-3.693h7.794a6.045,6.045,0,0,0,.715,3.693Zm14.44-9.963a2.263,2.263,0,0,1-2.261,2.261H41.188a2.263,2.263,0,0,1-2.261-2.261V37.272H79.834Zm0-3.713H38.927V15.211a2.263,2.263,0,0,1,2.261-2.261H46.81v2.971a2.264,2.264,0,0,0,1.4,2.09L50.052,26.4A1.5,1.5,0,0,0,51.5,27.572H53.65A1.487,1.487,0,0,0,55.1,25.745l-1.773-7.563h.2l10.67,4.185a1.76,1.76,0,0,0,1.7,1.317h1.512a1.76,1.76,0,0,0,1.758-1.758v-3.6a3.547,3.547,0,0,0,2.787-3.459V12.95h5.623a2.263,2.263,0,0,1,2.261,2.261Zm-5.647-5.113H60.776a2.673,2.673,0,0,0-5.13,0H44.574a.754.754,0,0,0,0,1.507H55.646a2.673,2.673,0,0,0,5.13,0H74.187a.754.754,0,1,0,0-1.507Zm-14.809.756a1.166,1.166,0,0,1-2.333,0v0a1.167,1.167,0,0,1,2.333,0v0Z" transform="translate(-37.42 0.343)" fill="#272a33"/>
</svg>
