<svg xmlns="http://www.w3.org/2000/svg" xmlns:xlink="http://www.w3.org/1999/xlink" width="92" height="92" viewBox="0 0 92 92">
  <defs>
    <linearGradient id="linear-gradient" x1="1.099" x2="-0.173" y2="1.401" gradientUnits="objectBoundingBox">
      <stop offset="0" stop-color="#fff" stop-opacity="0.471"/>
      <stop offset="1" stop-color="gray" stop-opacity="0.051"/>
    </linearGradient>
    <filter id="arrow-right-solid" x="17.811" y="20.787" width="59.044" height="57.777" filterUnits="userSpaceOnUse">
      <feOffset dx="1" dy="2" input="SourceAlpha"/>
      <feGaussianBlur stdDeviation="1.5" result="blur"/>
      <feFlood flood-color="#ed6d7d"/>
      <feComposite operator="in" in2="blur"/>
      <feComposite in="SourceGraphic"/>
    </filter>
  </defs>
  <g id="Group_16464" data-name="Group 16464" transform="translate(-45 -159)">
    <rect id="Mask" width="92" height="92" rx="46" transform="translate(45 159)" fill="url(#linear-gradient)"/>
    <g transform="matrix(1, 0, 0, 1, 45, 159)" filter="url(#arrow-right-solid)">
      <path id="arrow-right-solid-2" data-name="arrow-right-solid" d="M21.278,3.267l2.48-2.48a2.67,2.67,0,0,1,3.786,0l21.713,21.7a2.67,2.67,0,0,1,0,3.786L27.544,47.989a2.67,2.67,0,0,1-3.786,0l-2.48-2.48a2.684,2.684,0,0,1,.045-3.831L34.781,28.856H2.681A2.674,2.674,0,0,1,0,26.175V22.6a2.674,2.674,0,0,1,2.681-2.681h32.1L21.322,7.1A2.664,2.664,0,0,1,21.278,3.267Z" transform="translate(71.36 72.06) rotate(180)" fill="#ed6d7d"/>
    </g>
  </g>
</svg>
