<svg xmlns="http://www.w3.org/2000/svg" width="57.214" height="41.414" viewBox="0 0 57.214 41.414">
  <path id="Path_2012" data-name="Path 2012" d="M42.742,11.431A9.088,9.088,0,0,0,41.333,6.59H44.81a4.841,4.841,0,0,1,4.819,4.841v8.8a4.8,4.8,0,0,1-1.716,3.675,2.2,2.2,0,0,0,.836,3.807,10.166,10.166,0,0,1,7.064,11.4H48.969A14.7,14.7,0,0,0,41.6,24.744C43.446,22.038,42.61,14.556,42.742,11.431Zm-15.4,14.722a2.2,2.2,0,0,1-1.562,1.65,10.166,10.166,0,0,0-7.13,11.311H44.568A10.166,10.166,0,0,0,37.46,27.8,2.2,2.2,0,0,1,36.624,24a4.8,4.8,0,0,0,1.716-3.675v-8.8a4.841,4.841,0,0,0-4.819-4.841H29.692a4.863,4.863,0,0,0-4.841,4.841v8.8A4.863,4.863,0,0,0,26.568,24a2.2,2.2,0,0,1,.748,2.157Zm-5.721-1.386c-1.87-2.751-.946-10.188-1.144-13.335A9.088,9.088,0,0,1,21.881,6.59H18.4a4.841,4.841,0,0,0-4.819,4.841v8.8A4.8,4.8,0,0,0,15.3,23.908a2.2,2.2,0,0,1-.836,3.807A10.21,10.21,0,0,0,7.4,39.114h6.822a14.678,14.678,0,0,1,7.372-14.347ZM58.013,43.6H5.2a2.2,2.2,0,1,0,0,4.4H58.013a2.2,2.2,0,0,0,0-4.4Z" transform="translate(-3 -6.59)"/>
</svg>
