<svg xmlns="http://www.w3.org/2000/svg" width="83.366" height="83.366" viewBox="0 0 83.366 83.366">
  <g id="Group_16422" data-name="Group 16422" transform="translate(83.366 83.366) rotate(180)">
    <path id="Path_1981" data-name="Path 1981" d="M66.693,0,32.266,34.425A25.009,25.009,0,1,0,48.939,51.1l6.639-6.636V38.9h5.558L83.366,16.673V0ZM77.809,14.37,58.834,33.347H50.02v8.812l-5.01,5.008-2.356,2.356.967,3.187A19.458,19.458,0,1,1,30.654,39.743l3.185.967,2.356-2.356,32.8-32.8h8.815Z" transform="translate(0 0)" fill="#00072c"/>
    <circle id="Ellipse_376" data-name="Ellipse 376" cx="4.718" cy="4.718" r="4.718" transform="translate(14.122 59.809)" fill="#00072c"/>
    <path id="Path_1982" data-name="Path 1982" d="M0,16.673,16.673,0l1.965,1.965L1.965,18.638Z" transform="translate(54.594 10.135)" fill="#00072c"/>
  </g>
</svg>
