<svg xmlns="http://www.w3.org/2000/svg" width="79.714" height="45.551" viewBox="0 0 79.714 45.551">
  <g id="Group_16437" data-name="Group 16437" transform="translate(-32 -128)">
    <path id="Path_2013" data-name="Path 2013" d="M71.857,128C57.284,128,45.932,136.683,32,150.776c11.993,12.046,22.064,22.776,39.857,22.776,17.776,0,30.854-13.594,39.857-22.526C102.5,140.562,89.437,128,71.857,128Zm0,39.021A16.248,16.248,0,1,1,87.8,150.776,16.12,16.12,0,0,1,71.857,167.021Z" fill="#252b4b"/>
    <path id="Path_2014" data-name="Path 2014" d="M213.006,206.49a5.713,5.713,0,0,1,1.352-3.683,8.491,8.491,0,0,0-1.352-.107,9.486,9.486,0,1,0,9.306,9.484c0-.409-.036-.819-.071-1.228a5.7,5.7,0,0,1-9.235-4.466Z" transform="translate(-141.149 -61.408)" fill="#252b4b"/>
  </g>
</svg>
