<svg id="Group_16451" data-name="Group 16451" xmlns="http://www.w3.org/2000/svg" width="55.262" height="55.262" viewBox="0 0 55.262 55.262">
  <path id="Path_1995" data-name="Path 1995" d="M15.815,40.841a4.605,4.605,0,1,0,4.605,4.605A4.584,4.584,0,0,0,15.815,40.841ZM2,4V8.605H6.605L14.883,26.07l-3.108,5.641a4.681,4.681,0,0,0-.564,2.222,4.6,4.6,0,0,0,4.605,4.605H43.446V33.933H16.794a.57.57,0,0,1-.576-.576.547.547,0,0,1,.069-.276l2.061-3.753H35.5a4.62,4.62,0,0,0,4.029-2.372l8.232-14.944a2.226,2.226,0,0,0,.288-1.105,2.3,2.3,0,0,0-2.3-2.3H11.705L9.518,4H2ZM38.841,40.841a4.605,4.605,0,1,0,4.605,4.605A4.584,4.584,0,0,0,38.841,40.841Z" transform="translate(0.303 0.605)"/>
  <path id="Path_1996" data-name="Path 1996" d="M0,0H55.262V55.262H0Z" fill="none"/>
</svg>
