<svg xmlns="http://www.w3.org/2000/svg" width="49.655" height="49.655" viewBox="0 0 49.655 49.655">
  <g id="Group_16465" data-name="Group 16465" transform="translate(-16 -16)">
    <path id="Path_1997" data-name="Path 1997" d="M64.827,224.827H64V201.862A1.864,1.864,0,0,0,62.138,200h-.621v1.655h.621a.207.207,0,0,1,.207.207v22.965H49.1a.827.827,0,0,0-.37.087l-1.48.74H34.4l-1.48-.74a.827.827,0,0,0-.37-.087H19.31V201.862a.207.207,0,0,1,.207-.207h.621V200h-.621a1.864,1.864,0,0,0-1.862,1.862v22.965h-.828a.828.828,0,0,0-.828.828v2.069a2.9,2.9,0,0,0,2.9,2.9H57.379v-1.655H18.9a1.243,1.243,0,0,1-1.241-1.241v-1.241h14.7l1.48.74a.827.827,0,0,0,.37.087H47.448a.827.827,0,0,0,.37-.087l1.48-.74H64v1.241a1.243,1.243,0,0,1-1.241,1.241H59.034v1.655h3.724a2.9,2.9,0,0,0,2.9-2.9v-2.069A.828.828,0,0,0,64.827,224.827Z" transform="translate(0 -164.966)"/>
    <path id="Path_1998" data-name="Path 1998" d="M72.287,32.352l5.793,4.965a.828.828,0,0,0,1.124-.043l.242-.242V52.414a.828.828,0,0,0,.492.756l7.448,3.31a.828.828,0,0,0,.336.071h6.621a.829.829,0,0,0,.336-.071l7.448-3.31a.828.828,0,0,0,.491-.756V37.032l.242.242a.828.828,0,0,0,1.124.043l5.793-4.965a.828.828,0,0,0,.16-1.073l-5.793-9.1a.828.828,0,0,0-.372-.316l-4.671-2a.828.828,0,0,0-.035-1.133l-2.483-2.483A.831.831,0,0,0,96,16H86.067a.83.83,0,0,0-.585.242L83,18.725a.828.828,0,0,0-.035,1.134l-4.671,2a.828.828,0,0,0-.372.316l-2.106,3.31,1.4.889,1.969-3.095,5.177-2.219L88.839,24.9a.828.828,0,0,0,1.124-.043l1.07-1.07,1.07,1.07a.828.828,0,0,0,1.124.043l4.482-3.842,5.177,2.219,5.271,8.282-4.666,4-.214-.214-2.43-4.05-1.419.852L101,34.779a.825.825,0,0,0-.04.255V51.876l-6.8,3.021H91.86V49.931H90.205V54.9H87.9l-6.8-3.021V35.034a.828.828,0,0,0-.04-.255l1.578-2.629L81.22,31.3l-2.43,4.05-.214.214-4.666-4,2.248-3.532-1.4-.889L72.128,31.28A.828.828,0,0,0,72.287,32.352Zm17.047-9.2L84.8,19.264l1.219-1.219,3.885,4.533Zm1.7-1.8-3.166-3.694H94.2Zm1.7,1.8-.571-.572,3.885-4.533,1.219,1.219Z" transform="translate(-50.205)"/>
    <rect id="Rectangle_83" data-name="Rectangle 83" width="2" height="1" transform="translate(40 26.655)"/>
    <rect id="Rectangle_84" data-name="Rectangle 84" width="2" height="2" transform="translate(40 30.655)"/>
    <rect id="Rectangle_85" data-name="Rectangle 85" width="2" height="2" transform="translate(40 35.655)"/>
    <rect id="Rectangle_86" data-name="Rectangle 86" width="2" height="2" transform="translate(40 40.655)"/>
    <rect id="Rectangle_87" data-name="Rectangle 87" width="2" height="2" transform="translate(40 45.655)"/>
    <rect id="Rectangle_88" data-name="Rectangle 88" width="3" height="2" transform="translate(44 30.655)"/>
    <path id="Path_1999" data-name="Path 1999" d="M106.516,274.134l3.31-3.31a.828.828,0,0,0,0-1.17l-3.31-3.31-1.17,1.17,2.725,2.725-2.725,2.725Zm-30.963-7.791-3.31,3.31a.828.828,0,0,0,0,1.17l3.31,3.31,1.17-1.17L74,270.239l2.725-2.725Z" transform="translate(-50.207 -224.446)"/>
  </g>
</svg>
