<svg xmlns="http://www.w3.org/2000/svg" width="58.706" height="58.361" viewBox="0 0 58.706 58.361">
  <g id="Group_16452" data-name="Group 16452" transform="translate(1292 -3758.464)">
    <path id="Path_2010" data-name="Path 2010" d="M49.451.529a.973.973,0,1,0,0,1.945h.978V4.489a7.835,7.835,0,1,0,1.957,0V2.475h.978a.973.973,0,1,0,0-1.945ZM33.794,7.338a.973.973,0,1,0,0,1.945h6.849a.973.973,0,1,0,0-1.945ZM50.67,9.27a2.978,2.978,0,1,0,3.77,2.873.979.979,0,0,1,1.959,0,4.95,4.95,0,1,1-6.234-4.753.879.879,0,0,1,.26-.036A.975.975,0,0,1,50.67,9.27Zm3.979.5L52.188,12.8a.977.977,0,1,1-1.521-1.225L53.128,8.55a.949.949,0,0,1,.7-.378.983.983,0,0,1,.822,1.6Zm-18.9,1.455a.973.973,0,1,0,0,1.945h4.892a.973.973,0,1,0,0-1.945Zm2.935,3.891a.973.973,0,1,0,0,1.945h1.957a.973.973,0,1,0,0-1.945ZM12.316,30.691V19.011H4.445A2.945,2.945,0,0,0,1.5,21.927V49.163a.973.973,0,0,0-.975.973v1.947a.973.973,0,0,0,.978.973l2.93,0a7.833,7.833,0,0,1,15.666,0H40.645a7.833,7.833,0,0,1,15.666,0l1.945,0a.973.973,0,0,0,.978-.973V50.136a.973.973,0,0,0-.978-.973h-.978V43.329H55.322a.973.973,0,1,1,0-1.945h1.957V39.438a1.123,1.123,0,0,0-.25-.686L48.583,24.769c-.5-1.008-1.091-.9-2.066-.9H37.71V49.163H35.753V21.927a2.937,2.937,0,0,0-2.931-2.916H25.976V30.687A1.985,1.985,0,0,1,23.289,32.5l-4.168-1.659-4.114,1.647a1.983,1.983,0,0,1-2.691-1.8Zm11.7-11.68H14.275V30.679l4.477-1.793a.983.983,0,0,1,.73,0l4.533,1.8ZM42.445,26.8h3.79a1.792,1.792,0,0,1,1.559.889l5.5,9.038a1.8,1.8,0,0,1-1.567,2.711H42.457a1.8,1.8,0,0,1-1.812-1.8V28.592a1.8,1.8,0,0,1,1.8-1.8Zm.157,1.938v8.753h8.877l-5.33-8.753ZM23.033,40.409a.937.937,0,0,1,.978.975v3.889a.978.978,0,0,1-1.957,0V41.383A.937.937,0,0,1,23.033,40.409Zm3.914,0a.937.937,0,0,1,.978.975v3.889a.978.978,0,0,1-1.957,0V41.383a.937.937,0,0,1,.978-.975Zm3.914,0a.937.937,0,0,1,.978.975v3.889a.978.978,0,0,1-1.957,0V41.383A.937.937,0,0,1,30.861,40.409Zm9.786.975h.978a.973.973,0,1,1,0,1.945h-.978A.973.973,0,1,1,40.647,41.383ZM12.274,47.216a5.837,5.837,0,1,0,5.871,5.836,5.871,5.871,0,0,0-5.871-5.836Zm36.206,0a5.837,5.837,0,1,0,5.871,5.836,5.871,5.871,0,0,0-5.871-5.836Zm-36.206,2.92A2.919,2.919,0,1,1,9.333,53.05a2.934,2.934,0,0,1,2.941-2.914Zm36.208,0a2.919,2.919,0,1,1-2.941,2.914A2.934,2.934,0,0,1,48.482,50.136ZM12.274,52.082a.974.974,0,1,0,.975.969A.969.969,0,0,0,12.274,52.082Zm36.208,0a.974.974,0,1,0,.975.969A.969.969,0,0,0,48.482,52.082Z" transform="translate(-1292.529 3757.935)"/>
  </g>
</svg>
